<svg xmlns="http://www.w3.org/2000/svg" viewBox="0 0 1024 1024">
<defs>
<radialGradient id="vignette" cx="0.5" cy="0.42" r="0.75">
  <stop offset="0" stop-color="#1a1a1a"/>
  <stop offset="1" stop-color="#000000"/>
</radialGradient>
<filter id="grain" x="0" y="0" width="1" height="1">
  <feTurbulence type="fractalNoise" baseFrequency="0.9" numOctaves="2" seed="7"/>
  <feColorMatrix values="0 0 0 0 1  0 0 0 0 1  0 0 0 0 1  0 0 0 0.04 0"/>
</filter>
<clipPath id="iconClip">
  <rect x="0" y="0" width="1024" height="1024" rx="224" ry="224"/>
</clipPath>
</defs>
<rect x="0" y="0" width="1024" height="1024" rx="224" ry="224" fill="url(#vignette)"/>
<g clip-path="url(#iconClip)">
<circle cx="512.0" cy="512.0" r="399.7" fill="none" stroke="#ffffff" stroke-opacity="0.06" stroke-width="1"/>
<circle cx="512.0" cy="512.0" r="321.8" fill="none" stroke="#ffffff" stroke-opacity="0.09" stroke-width="1"/>
<circle cx="512.0" cy="512.0" r="234.0" fill="none" stroke="#ffffff" stroke-opacity="0.06" stroke-width="1"/>
<g>
<line x1="512.0" y1="512.0" x2="1035.51" y2="814.25" stroke="#ffffff" stroke-opacity="0.07" stroke-width="1"/>
<line x1="512.0" y1="512.0" x2="-11.51" y2="814.25" stroke="#ffffff" stroke-opacity="0.07" stroke-width="1"/>
<line x1="512.0" y1="512.0" x2="512.00" y2="-92.50" stroke="#ffffff" stroke-opacity="0.07" stroke-width="1"/>
<line x1="512.0" y1="512.0" x2="512.00" y2="512.00" stroke="#ffffff" stroke-opacity="0.07" stroke-width="1"/>
<line x1="512.0" y1="512.0" x2="1035.51" y2="209.75" stroke="#ffffff" stroke-opacity="0.07" stroke-width="1"/>
<line x1="512.0" y1="512.0" x2="512.00" y2="1116.50" stroke="#ffffff" stroke-opacity="0.07" stroke-width="1"/>
</g>
<g>
<line x1="512.00" y1="902.00" x2="174.25" y2="707.00" stroke="#ffffff" stroke-opacity="0.7" stroke-width="2" stroke-linecap="round" stroke-dasharray="4 8"/>
<line x1="512.00" y1="902.00" x2="512.00" y2="512.00" stroke="#ffffff" stroke-opacity="0.7" stroke-width="2" stroke-linecap="round" stroke-dasharray="4 8"/>
</g>
<g>
<line x1="512.00" y1="512.00" x2="174.25" y2="707.00" stroke="#ffffff" stroke-opacity="0.65" stroke-width="2" stroke-linecap="round" stroke-dasharray="4 8"/>
<line x1="512.00" y1="512.00" x2="512.00" y2="902.00" stroke="#ffffff" stroke-opacity="0.65" stroke-width="2" stroke-linecap="round" stroke-dasharray="4 8"/>
<line x1="512.00" y1="512.00" x2="512.00" y2="512.00" stroke="#ffffff" stroke-opacity="0.65" stroke-width="2" stroke-linecap="round" stroke-dasharray="4 8"/>
</g>
<g>
<line x1="849.75" y1="707.00" x2="512.00" y2="902.00" stroke="#ffffff" stroke-opacity="0.9" stroke-width="3.5" stroke-linecap="round"/>
<line x1="174.25" y1="707.00" x2="512.00" y2="512.00" stroke="#ffffff" stroke-opacity="0.9" stroke-width="3.5" stroke-linecap="round"/>
<line x1="849.75" y1="317.00" x2="512.00" y2="512.00" stroke="#ffffff" stroke-opacity="0.9" stroke-width="3.5" stroke-linecap="round"/>
<line x1="512.00" y1="512.00" x2="174.25" y2="317.00" stroke="#ffffff" stroke-opacity="0.9" stroke-width="3.5" stroke-linecap="round"/>
<line x1="174.25" y1="707.00" x2="174.25" y2="317.00" stroke="#ffffff" stroke-opacity="0.9" stroke-width="3.5" stroke-linecap="round"/>
</g>
<g>
<line x1="512.00" y1="512.00" x2="849.75" y2="707.00" stroke="#ffffff" stroke-opacity="1.0" stroke-width="4.5" stroke-linecap="round"/>
<line x1="512.00" y1="122.00" x2="849.75" y2="317.00" stroke="#ffffff" stroke-opacity="1.0" stroke-width="4.5" stroke-linecap="round"/>
<line x1="174.25" y1="317.00" x2="512.00" y2="122.00" stroke="#ffffff" stroke-opacity="1.0" stroke-width="4.5" stroke-linecap="round"/>
<line x1="512.00" y1="512.00" x2="512.00" y2="122.00" stroke="#ffffff" stroke-opacity="1.0" stroke-width="4.5" stroke-linecap="round"/>
<line x1="849.75" y1="707.00" x2="849.75" y2="317.00" stroke="#ffffff" stroke-opacity="1.0" stroke-width="4.5" stroke-linecap="round"/>
</g>
<g>
<line x1="512.00" y1="512.00" x2="512.00" y2="512.00" stroke="#ffffff" stroke-opacity="0.9" stroke-width="2.75" stroke-linecap="round"/>
<line x1="512.00" y1="512.00" x2="849.75" y2="707.00" stroke="#ffffff" stroke-opacity="0.9" stroke-width="2.75" stroke-linecap="round"/>
<line x1="512.00" y1="512.00" x2="849.75" y2="317.00" stroke="#ffffff" stroke-opacity="0.9" stroke-width="2.75" stroke-linecap="round"/>
<line x1="512.00" y1="512.00" x2="512.00" y2="122.00" stroke="#ffffff" stroke-opacity="0.9" stroke-width="2.75" stroke-linecap="round"/>
<line x1="512.00" y1="512.00" x2="174.25" y2="317.00" stroke="#ffffff" stroke-opacity="0.9" stroke-width="2.75" stroke-linecap="round"/>
</g>
<g>
<circle cx="512.00" cy="902.00" r="10" fill="#000000" stroke="#ffffff" stroke-width="2.5" stroke-opacity="0.55"/>
<circle cx="512.00" cy="902.00" r="4" fill="#ffffff" fill-opacity="0.55"/>
<circle cx="174.25" cy="707.00" r="10" fill="#000000" stroke="#ffffff" stroke-width="2.5" stroke-opacity="0.55"/>
<circle cx="174.25" cy="707.00" r="4" fill="#ffffff" fill-opacity="0.55"/>
<circle cx="512.00" cy="512.00" r="10" fill="#000000" stroke="#ffffff" stroke-width="2.5" stroke-opacity="0.55"/>
<circle cx="512.00" cy="512.00" r="4" fill="#ffffff" fill-opacity="0.55"/>
<circle cx="512.00" cy="512.00" r="15" fill="#000000" stroke="#ffffff" stroke-width="2.5" stroke-opacity="1.0"/>
<circle cx="512.00" cy="512.00" r="6" fill="#ffffff" fill-opacity="1.0"/>
<circle cx="849.75" cy="707.00" r="15" fill="#000000" stroke="#ffffff" stroke-width="2.5" stroke-opacity="1.0"/>
<circle cx="849.75" cy="707.00" r="6" fill="#ffffff" fill-opacity="1.0"/>
<circle cx="512.00" cy="122.00" r="15" fill="#000000" stroke="#ffffff" stroke-width="2.5" stroke-opacity="1.0"/>
<circle cx="512.00" cy="122.00" r="6" fill="#ffffff" fill-opacity="1.0"/>
<circle cx="849.75" cy="317.00" r="15" fill="#000000" stroke="#ffffff" stroke-width="2.5" stroke-opacity="1.0"/>
<circle cx="849.75" cy="317.00" r="6" fill="#ffffff" fill-opacity="1.0"/>
<circle cx="174.25" cy="317.00" r="15" fill="#000000" stroke="#ffffff" stroke-width="2.5" stroke-opacity="1.0"/>
<circle cx="174.25" cy="317.00" r="6" fill="#ffffff" fill-opacity="1.0"/>
</g>
<circle cx="512.00" cy="512.00" r="22" fill="#000000" stroke="#ffffff" stroke-width="1" stroke-opacity="0.25"/>
<circle cx="512.00" cy="512.00" r="15" fill="#000000" stroke="#ffffff" stroke-width="2"/>
<circle cx="512.00" cy="512.00" r="7" fill="#ffffff"/>
<g stroke="#ffffff" stroke-opacity="0.22" stroke-width="1.2" stroke-linecap="round"><line x1="72" y1="80" x2="88" y2="80"/><line x1="80" y1="72" x2="80" y2="88"/></g>
<g stroke="#ffffff" stroke-opacity="0.22" stroke-width="1.2" stroke-linecap="round"><line x1="936" y1="80" x2="952" y2="80"/><line x1="944" y1="72" x2="944" y2="88"/></g>
<g stroke="#ffffff" stroke-opacity="0.22" stroke-width="1.2" stroke-linecap="round"><line x1="72" y1="944" x2="88" y2="944"/><line x1="80" y1="936" x2="80" y2="952"/></g>
<g stroke="#ffffff" stroke-opacity="0.22" stroke-width="1.2" stroke-linecap="round"><line x1="936" y1="944" x2="952" y2="944"/><line x1="944" y1="936" x2="944" y2="952"/></g>
<rect x="0" y="0" width="1024" height="1024" filter="url(#grain)" opacity="0.6"/>
</g>
</svg>